Wavefont-Medium.ufo
<glyph name="_5" format="2">
  <advance width="50.0"/>
  <unicode hex="0105"/>
  <outline>
    <contour>
      <point x="25.0" y="50.0" type="curve" smooth="yes"/>
      <point x="25.0" y="50.0" type="line"/>
      <point x="38.75" y="50.0"/>
      <point x="50.0" y="38.75"/>
      <point x="50.0" y="25.0" type="curve" smooth="yes"/>
      <point x="50.0" y="25.0" type="line"/>
      <point x="50.0" y="11.25"/>
      <point x="38.75" y="0.0"/>
      <point x="25.0" y="0.0" type="curve" smooth="yes"/>
      <point x="25.0" y="0.0" type="line"/>
      <point x="11.25" y="0.0"/>
      <point x="0.0" y="11.25"/>
      <point x="0.0" y="25.0" type="curve" smooth="yes"/>
      <point x="0.0" y="25.0" type="line"/>
      <point x="0.0" y="38.75"/>
      <point x="11.25" y="50.0"/>
    </contour>
  </outline>
</glyph>
<glyph name="_6" format="2">
  <advance width="50.0"/>
  <unicode hex="0106"/>
  <unicode hex="0064"/>
  <outline>
    <contour>
      <point x="0.0" y="25.408163265306122" type="line"/>
      <point x="0.0" y="35.40816326530612" type="line"/>
      <point x="50.0" y="35.40816326530612" type="line"/>
      <point x="50.0" y="25.408163265306122" type="line"/>
    </contour>
    <component base="cap"/>
    <component base="cap" yOffset="10.0"/>
  </outline>
</glyph>
<glyph name="_8" format="2">
  <advance width="50.0"/>
  <unicode hex="0108"/>
  <unicode hex="0065"/>
  <outline>
    <contour>
      <point x="0.0" y="25.408163265306122" type="line"/>
      <point x="0.0" y="55.40816326530612" type="line"/>
      <point x="50.0" y="55.40816326530612" type="line"/>
      <point x="50.0" y="25.408163265306122" type="line"/>
    </contour>
    <component base="cap"/>
    <component base="cap" yOffset="30.0"/>
  </outline>
</glyph>
<glyph name="_9" format="2">
  <advance width="50.0"/>
  <unicode hex="0109"/>
  <outline>
    <contour>
      <point x="0.0" y="25.408163265306122" type="line"/>
      <point x="0.0" y="65.40816326530611" type="line"/>
      <point x="50.0" y="65.40816326530611" type="line"/>
      <point x="50.0" y="25.408163265306122" type="line"/>
    </contour>
    <component base="cap"/>
    <component base="cap" yOffset="40.0"/>
  </outline>
</glyph>
<glyph name="_10" format="2">
  <advance width="50.0"/>
  <unicode hex="010A"/>
  <unicode hex="0031"/>
  <unicode hex="0066"/>
  <outline>
    <contour>
      <point x="0.0" y="25.408163265306122" type="line"/>
      <point x="0.0" y="75.40816326530611" type="line"/>
      <point x="50.0" y="75.40816326530611" type="line"/>
      <point x="50.0" y="25.408163265306122" type="line"/>
    </contour>
    <component base="cap"/>
    <component base="cap" yOffset="50.0"/>
  </outline>
</glyph>
<glyph name="_11" format="2">
  <advance width="50.0"/>
  <unicode hex="010B"/>
  <outline>
    <contour>
      <point x="0.0" y="25.408163265306122" type="line"/>
      <point x="0.0" y="85.40816326530611" type="line"/>
      <point x="50.0" y="85.40816326530611" type="line"/>
      <point x="50.0" y="25.408163265306122" type="line"/>
    </contour>
    <component base="cap"/>
    <component base="cap" yOffset="60.0"/>
  </outline>
</glyph>
<glyph name="_14" format="2">
  <advance width="50.0"/>
  <unicode hex="010E"/>
  <unicode hex="2582"/>
  <unicode hex="0068"/>
  <outline>
    <contour>
      <point x="0.0" y="25.408163265306122" type="line"/>
      <point x="0.0" y="115.40816326530611" type="line"/>
      <point x="50.0" y="115.40816326530611" type="line"/>
      <point x="50.0" y="25.408163265306122" type="line"/>
    </contour>
    <component base="cap"/>
    <component base="cap" yOffset="90.0"/>
  </outline>
</glyph>
<glyph name="_15" format="2">
  <advance width="50.0"/>
  <unicode hex="010F"/>
  <outline>
    <contour>
      <point x="0.0" y="25.408163265306122" type="line"/>
      <point x="0.0" y="125.40816326530611" type="line"/>
      <point x="50.0" y="125.40816326530611" type="line"/>
      <point x="50.0" y="25.408163265306122" type="line"/>
    </contour>
    <component base="cap"/>
    <component base="cap" yOffset="100.0"/>
  </outline>
</glyph>
<glyph name="_16" format="2">
  <advance width="50.0"/>
  <unicode hex="0110"/>
  <unicode hex="0069"/>
  <outline>
    <contour>
      <point x="0.0" y="25.408163265306122" type="line"/>
      <point x="0.0" y="135.40816326530611" type="line"/>
      <point x="50.0" y="135.40816326530611" type="line"/>
      <point x="50.0" y="25.408163265306122" type="line"/>
    </contour>
    <component base="cap"/>
    <component base="cap" yOffset="110.0"/>
  </outline>
</glyph>
<glyph name="_18" format="2">
  <advance width="50.0"/>
  <unicode hex="0112"/>
  <unicode hex="006A"/>
  <outline>
    <contour>
      <point x="0.0" y="25.408163265306122" type="line"/>
      <point x="0.0" y="155.40816326530611" type="line"/>
      <point x="50.0" y="155.40816326530611" type="line"/>
      <point x="50.0" y="25.408163265306122" type="line"/>
    </contour>
    <component base="cap"/>
    <component base="cap" yOffset="130.0"/>
  </outline>
</glyph>
<glyph name="_21" format="2">
  <advance width="50.0"/>
  <unicode hex="0115"/>
  <outline>
    <contour>
      <point x="0.0" y="25.408163265306122" type="line"/>
      <point x="0.0" y="185.40816326530611" type="line"/>
      <point x="50.0" y="185.40816326530611" type="line"/>
      <point x="50.0" y="25.408163265306122" type="line"/>
    </contour>
    <component base="cap"/>
    <component base="cap" yOffset="160.0"/>
  </outline>
</glyph>
<glyph name="_22" format="2">
  <advance width="50.0"/>
  <unicode hex="0116"/>
  <unicode hex="006C"/>
  <outline>
    <contour>
      <point x="0.0" y="25.408163265306122" type="line"/>
      <point x="0.0" y="195.40816326530611" type="line"/>
      <point x="50.0" y="195.40816326530611" type="line"/>
      <point x="50.0" y="25.408163265306122" type="line"/>
    </contour>
    <component base="cap"/>
    <component base="cap" yOffset="170.0"/>
  </outline>
</glyph>
<glyph name="_23" format="2">
  <advance width="50.0"/>
  <unicode hex="0117"/>
  <outline>
    <contour>
      <point x="0.0" y="25.408163265306122" type="line"/>
      <point x="0.0" y="205.40816326530611" type="line"/>
      <point x="50.0" y="205.40816326530611" type="line"/>
      <point x="50.0" y="25.408163265306122" type="line"/>
    </contour>
    <component base="cap"/>
    <component base="cap" yOffset="180.0"/>
  </outline>
</glyph>
<glyph name="_24" format="2">
  <advance width="50.0"/>
  <unicode hex="0118"/>
  <unicode hex="006D"/>
  <outline>
    <contour>
      <point x="0.0" y="25.408163265306122" type="line"/>
      <point x="0.0" y="215.40816326530611" type="line"/>
      <point x="50.0" y="215.40816326530611" type="line"/>
      <point x="50.0" y="25.408163265306122" type="line"/>
    </contour>
    <component base="cap"/>
    <component base="cap" yOffset="190.0"/>
  </outline>
</glyph>
<glyph name="_25" format="2">
  <advance width="50.0"/>
  <unicode hex="0119"/>
  <outline>
    <contour>
      <point x="0.0" y="25.408163265306122" type="line"/>
      <point x="0.0" y="225.40816326530611" type="line"/>
      <point x="50.0" y="225.40816326530611" type="line"/>
      <point x="50.0" y="25.408163265306122" type="line"/>
    </contour>
    <component base="cap"/>
    <component base="cap" yOffset="200.0"/>
  </outline>
</glyph>
<glyph name="_26" format="2">
  <advance width="50.0"/>
  <unicode hex="011A"/>
  <unicode hex="006E"/>
  <outline>
    <contour>
      <point x="0.0" y="25.408163265306122" type="line"/>
      <point x="0.0" y="235.40816326530611" type="line"/>
      <point x="50.0" y="235.40816326530611" type="line"/>
      <point x="50.0" y="25.408163265306122" type="line"/>
    </contour>
    <component base="cap"/>
    <component base="cap" yOffset="210.0"/>
  </outline>
</glyph>
<glyph name="_27" format="2">
  <advance width="50.0"/>
  <unicode hex="011B"/>
  <outline>
    <contour>
      <point x="0.0" y="25.408163265306122" type="line"/>
      <point x="0.0" y="245.40816326530611" type="line"/>
      <point x="50.0" y="245.40816326530611" type="line"/>
      <point x="50.0" y="25.408163265306122" type="line"/>
    </contour>
    <component base="cap"/>
    <component base="cap" yOffset="220.0"/>
  </outline>
</glyph>
<glyph name="_28" format="2">
  <advance width="50.0"/>
  <unicode hex="011C"/>
  <unicode hex="2583"/>
  <unicode hex="006F"/>
  <outline>
    <contour>
      <point x="0.0" y="25.408163265306122" type="line"/>
      <point x="0.0" y="255.40816326530611" type="line"/>
      <point x="50.0" y="255.40816326530611" type="line"/>
      <point x="50.0" y="25.408163265306122" type="line"/>
    </contour>
    <component base="cap"/>
    <component base="cap" yOffset="230.0"/>
  </outline>
</glyph>
<glyph name="_31" format="2">
  <advance width="50.0"/>
  <unicode hex="011F"/>
  <outline>
    <contour>
      <point x="0.0" y="25.408163265306122" type="line"/>
      <point x="0.0" y="285.40816326530614" type="line"/>
      <point x="50.0" y="285.40816326530614" type="line"/>
      <point x="50.0" y="25.408163265306122" type="line"/>
    </contour>
    <component base="cap"/>
    <component base="cap" yOffset="260.0"/>
  </outline>
</glyph>
<glyph name="_32" format="2">
  <advance width="50.0"/>
  <unicode hex="0120"/>
  <unicode hex="0071"/>
  <outline>
    <contour>
      <point x="0.0" y="25.408163265306122" type="line"/>
      <point x="0.0" y="295.40816326530614" type="line"/>
      <point x="50.0" y="295.40816326530614" type="line"/>
      <point x="50.0" y="25.408163265306122" type="line"/>
    </contour>
    <component base="cap"/>
    <component base="cap" yOffset="270.0"/>
  </outline>
</glyph>
<glyph name="_35" format="2">
  <advance width="50.0"/>
  <unicode hex="0123"/>
  <outline>
    <contour>
      <point x="0.0" y="25.408163265306122" type="line"/>
      <point x="0.0" y="325.40816326530614" type="line"/>
      <point x="50.0" y="325.40816326530614" type="line"/>
      <point x="50.0" y="25.408163265306122" type="line"/>
    </contour>
    <component base="cap"/>
    <component base="cap" yOffset="300.0"/>
  </outline>
</glyph>
<glyph name="_36" format="2">
  <advance width="50.0"/>
  <unicode hex="0124"/>
  <unicode hex="0073"/>
  <outline>
    <contour>
      <point x="0.0" y="25.408163265306122" type="line"/>
      <point x="0.0" y="335.40816326530614" type="line"/>
      <point x="50.0" y="335.40816326530614" type="line"/>
      <point x="50.0" y="25.408163265306122" type="line"/>
    </contour>
    <component base="cap"/>
    <component base="cap" yOffset="310.0"/>
  </outline>
</glyph>
<glyph name="_37" format="2">
  <advance width="50.0"/>
  <unicode hex="0125"/>
  <outline>
    <contour>
      <point x="0.0" y="25.408163265306122" type="line"/>
      <point x="0.0" y="345.40816326530614" type="line"/>
      <point x="50.0" y="345.40816326530614" type="line"/>
      <point x="50.0" y="25.408163265306122" type="line"/>
    </contour>
    <component base="cap"/>
    <component base="cap" yOffset="320.0"/>
  </outline>
</glyph>
<glyph name="_38" format="2">
  <advance width="50.0"/>
  <unicode hex="0126"/>
  <unicode hex="0074"/>
  <outline>
    <contour>
      <point x="0.0" y="25.408163265306122" type="line"/>
      <point x="0.0" y="355.40816326530614" type="line"/>
      <point x="50.0" y="355.40816326530614" type="line"/>
      <point x="50.0" y="25.408163265306122" type="line"/>
    </contour>
    <component base="cap"/>
    <component base="cap" yOffset="330.0"/>
  </outline>
</glyph>
<glyph name="_40" format="2">
  <advance width="50.0"/>
  <unicode hex="0128"/>
  <unicode hex="0034"/>
  <unicode hex="0075"/>
  <outline>
    <contour>
      <point x="0.0" y="25.408163265306122" type="line"/>
      <point x="0.0" y="375.40816326530614" type="line"/>
      <point x="50.0" y="375.40816326530614" type="line"/>
      <point x="50.0" y="25.408163265306122" type="line"/>
    </contour>
    <component base="cap"/>
    <component base="cap" yOffset="350.0"/>
  </outline>
</glyph>
<glyph name="_44" format="2">
  <advance width="50.0"/>
  <unicode hex="012C"/>
  <unicode hex="0077"/>
  <outline>
    <contour>
      <point x="0.0" y="25.408163265306122" type="line"/>
      <point x="0.0" y="415.40816326530614" type="line"/>
      <point x="50.0" y="415.40816326530614" type="line"/>
      <point x="50.0" y="25.408163265306122" type="line"/>
    </contour>
    <component base="cap"/>
    <component base="cap" yOffset="390.0"/>
  </outline>
</glyph>
<glyph name="_45" format="2">
  <advance width="50.0"/>
  <unicode hex="012D"/>
  <outline>
    <contour>
      <point x="0.0" y="25.408163265306122" type="line"/>
      <point x="0.0" y="425.40816326530614" type="line"/>
      <point x="50.0" y="425.40816326530614" type="line"/>
      <point x="50.0" y="25.408163265306122" type="line"/>
    </contour>
    <component base="cap"/>
    <component base="cap" yOffset="400.0"/>
  </outline>
</glyph>
<glyph name="_46" format="2">
  <advance width="50.0"/>
  <unicode hex="012E"/>
  <unicode hex="0078"/>
  <outline>
    <contour>
      <point x="0.0" y="25.408163265306122" type="line"/>
      <point x="0.0" y="435.40816326530614" type="line"/>
      <point x="50.0" y="435.40816326530614" type="line"/>
      <point x="50.0" y="25.408163265306122" type="line"/>
    </contour>
    <component base="cap"/>
    <component base="cap" yOffset="410.0"/>
  </outline>
</glyph>
<glyph name="_47" format="2">
  <advance width="50.0"/>
  <unicode hex="012F"/>
  <outline>
    <contour>
      <point x="0.0" y="25.408163265306122" type="line"/>
      <point x="0.0" y="445.40816326530614" type="line"/>
      <point x="50.0" y="445.40816326530614" type="line"/>
      <point x="50.0" y="25.408163265306122" type="line"/>
    </contour>
    <component base="cap"/>
    <component base="cap" yOffset="420.0"/>
  </outline>
</glyph>
<glyph name="_50" format="2">
  <advance width="50.0"/>
  <unicode hex="0132"/>
  <unicode hex="0035"/>
  <unicode hex="007A"/>
  <outline>
    <contour>
      <point x="0.0" y="25.408163265306122" type="line"/>
      <point x="0.0" y="475.40816326530614" type="line"/>
      <point x="50.0" y="475.40816326530614" type="line"/>
      <point x="50.0" y="25.408163265306122" type="line"/>
    </contour>
    <component base="cap"/>
    <component base="cap" yOffset="450.0"/>
  </outline>
</glyph>
<glyph name="_51" format="2">
  <advance width="50.0"/>
  <unicode hex="0133"/>
  <outline>
    <contour>
      <point x="0.0" y="25.408163265306122" type="line"/>
      <point x="0.0" y="485.40816326530614" type="line"/>
      <point x="50.0" y="485.40816326530614" type="line"/>
      <point x="50.0" y="25.408163265306122" type="line"/>
    </contour>
    <component base="cap"/>
    <component base="cap" yOffset="460.0"/>
  </outline>
</glyph>
<glyph name="_53" format="2">
  <advance width="50.0"/>
  <unicode hex="0135"/>
  <outline>
    <contour>
      <point x="0.0" y="25.408163265306122" type="line"/>
      <point x="0.0" y="505.40816326530614" type="line"/>
      <point x="50.0" y="505.40816326530614" type="line"/>
      <point x="50.0" y="25.408163265306122" type="line"/>
    </contour>
    <component base="cap"/>
    <component base="cap" yOffset="480.0"/>
  </outline>
</glyph>
<glyph name="_57" format="2">
  <advance width="50.0"/>
  <unicode hex="0139"/>
  <outline>
    <contour>
      <point x="0.0" y="25.408163265306122" type="line"/>
      <point x="0.0" y="545.4081632653061" type="line"/>
      <point x="50.0" y="545.4081632653061" type="line"/>
      <point x="50.0" y="25.408163265306122" type="line"/>
    </contour>
    <component base="cap"/>
    <component base="cap" yOffset="520.0"/>
  </outline>
</glyph>
<glyph name="_61" format="2">
  <advance width="50.0"/>
  <unicode hex="013D"/>
  <outline>
    <contour>
      <point x="0.0" y="25.408163265306122" type="line"/>
      <point x="0.0" y="585.4081632653061" type="line"/>
      <point x="50.0" y="585.4081632653061" type="line"/>
      <point x="50.0" y="25.408163265306122" type="line"/>
    </contour>
    <component base="cap"/>
    <component base="cap" yOffset="560.0"/>
  </outline>
</glyph>
<glyph name="_62" format="2">
  <advance width="50.0"/>
  <unicode hex="013E"/>
  <unicode hex="0046"/>
  <outline>
    <contour>
      <point x="0.0" y="25.408163265306122" type="line"/>
      <point x="0.0" y="595.4081632653061" type="line"/>
      <point x="50.0" y="595.4081632653061" type="line"/>
      <point x="50.0" y="25.408163265306122" type="line"/>
    </contour>
    <component base="cap"/>
    <component base="cap" yOffset="570.0"/>
  </outline>
</glyph>
<glyph name="_64" format="2">
  <advance width="50.0"/>
  <unicode hex="0140"/>
  <unicode hex="0047"/>
  <outline>
    <contour>
      <point x="0.0" y="25.408163265306122" type="line"/>
      <point x="0.0" y="615.4081632653061" type="line"/>
      <point x="50.0" y="615.4081632653061" type="line"/>
      <point x="50.0" y="25.408163265306122" type="line"/>
    </contour>
    <component base="cap"/>
    <component base="cap" yOffset="590.0"/>
  </outline>
</glyph>
<glyph name="_67" format="2">
  <advance width="50.0"/>
  <unicode hex="0143"/>
  <outline>
    <contour>
      <point x="0.0" y="25.408163265306122" type="line"/>
      <point x="0.0" y="645.4081632653061" type="line"/>
      <point x="50.0" y="645.4081632653061" type="line"/>
      <point x="50.0" y="25.408163265306122" type="line"/>
    </contour>
    <component base="cap"/>
    <component base="cap" yOffset="620.0"/>
  </outline>
</glyph>
<glyph name="_68" format="2">
  <advance width="50.0"/>
  <unicode hex="0144"/>
  <unicode hex="0049"/>
  <outline>
    <contour>
      <point x="0.0" y="25.408163265306122" type="line"/>
      <point x="0.0" y="655.4081632653061" type="line"/>
      <point x="50.0" y="655.4081632653061" type="line"/>
      <point x="50.0" y="25.408163265306122" type="line"/>
    </contour>
    <component base="cap"/>
    <component base="cap" yOffset="630.0"/>
  </outline>
</glyph>
<glyph name="_69" format="2">
  <advance width="50.0"/>
  <unicode hex="0145"/>
  <outline>
    <contour>
      <point x="0.0" y="25.408163265306122" type="line"/>
      <point x="0.0" y="665.4081632653061" type="line"/>
      <point x="50.0" y="665.4081632653061" type="line"/>
      <point x="50.0" y="25.408163265306122" type="line"/>
    </contour>
    <component base="cap"/>
    <component base="cap" yOffset="640.0"/>
  </outline>
</glyph>
<glyph name="_70" format="2">
  <advance width="50.0"/>
  <unicode hex="0146"/>
  <unicode hex="0037"/>
  <unicode hex="004A"/>
  <outline>
    <contour>
      <point x="0.0" y="25.408163265306122" type="line"/>
      <point x="0.0" y="675.4081632653061" type="line"/>
      <point x="50.0" y="675.4081632653061" type="line"/>
      <point x="50.0" y="25.408163265306122" type="line"/>
    </contour>
    <component base="cap"/>
    <component base="cap" yOffset="650.0"/>
  </outline>
</glyph>
<glyph name="_71" format="2">
  <advance width="50.0"/>
  <unicode hex="0147"/>
  <outline>
    <contour>
      <point x="0.0" y="25.408163265306122" type="line"/>
      <point x="0.0" y="685.4081632653061" type="line"/>
      <point x="50.0" y="685.4081632653061" type="line"/>
      <point x="50.0" y="25.408163265306122" type="line"/>
    </contour>
    <component base="cap"/>
    <component base="cap" yOffset="660.0"/>
  </outline>
</glyph>
<glyph name="_72" format="2">
  <advance width="50.0"/>
  <unicode hex="0148"/>
  <unicode hex="2586"/>
  <unicode hex="004B"/>
  <outline>
    <contour>
      <point x="0.0" y="25.408163265306122" type="line"/>
      <point x="0.0" y="695.4081632653061" type="line"/>
      <point x="50.0" y="695.4081632653061" type="line"/>
      <point x="50.0" y="25.408163265306122" type="line"/>
    </contour>
    <component base="cap"/>
    <component base="cap" yOffset="670.0"/>
  </outline>
</glyph>
<glyph name="_76" format="2">
  <advance width="50.0"/>
  <unicode hex="014C"/>
  <unicode hex="004D"/>
  <outline>
    <contour>
      <point x="0.0" y="25.408163265306122" type="line"/>
      <point x="0.0" y="735.4081632653061" type="line"/>
      <point x="50.0" y="735.4081632653061" type="line"/>
      <point x="50.0" y="25.408163265306122" type="line"/>
    </contour>
    <component base="cap"/>
    <component base="cap" yOffset="710.0"/>
  </outline>
</glyph>
<glyph name="_78" format="2">
  <advance width="50.0"/>
  <unicode hex="014E"/>
  <unicode hex="004E"/>
  <outline>
    <contour>
      <point x="0.0" y="25.408163265306122" type="line"/>
      <point x="0.0" y="755.4081632653061" type="line"/>
      <point x="50.0" y="755.4081632653061" type="line"/>
      <point x="50.0" y="25.408163265306122" type="line"/>
    </contour>
    <component base="cap"/>
    <component base="cap" yOffset="730.0"/>
  </outline>
</glyph>
<glyph name="_81" format="2">
  <advance width="50.0"/>
  <unicode hex="0151"/>
  <outline>
    <contour>
      <point x="0.0" y="25.408163265306122" type="line"/>
      <point x="0.0" y="785.4081632653061" type="line"/>
      <point x="50.0" y="785.4081632653061" type="line"/>
      <point x="50.0" y="25.408163265306122" type="line"/>
    </contour>
    <component base="cap"/>
    <component base="cap" yOffset="760.0"/>
  </outline>
</glyph>
<glyph name="_83" format="2">
  <advance width="50.0"/>
  <unicode hex="0153"/>
  <outline>
    <contour>
      <point x="0.0" y="25.408163265306122" type="line"/>
      <point x="0.0" y="805.4081632653061" type="line"/>
      <point x="50.0" y="805.4081632653061" type="line"/>
      <point x="50.0" y="25.408163265306122" type="line"/>
    </contour>
    <component base="cap"/>
    <component base="cap" yOffset="780.0"/>
  </outline>
</glyph>
<glyph name="_86" format="2">
  <advance width="50.0"/>
  <unicode hex="0156"/>
  <unicode hex="2587"/>
  <unicode hex="0052"/>
  <outline>
    <contour>
      <point x="0.0" y="25.408163265306122" type="line"/>
      <point x="0.0" y="835.4081632653061" type="line"/>
      <point x="50.0" y="835.4081632653061" type="line"/>
      <point x="50.0" y="25.408163265306122" type="line"/>
    </contour>
    <component base="cap"/>
    <component base="cap" yOffset="810.0"/>
  </outline>
</glyph>
<glyph name="_87" format="2">
  <advance width="50.0"/>
  <unicode hex="0157"/>
  <outline>
    <contour>
      <point x="0.0" y="25.408163265306122" type="line"/>
      <point x="0.0" y="845.4081632653061" type="line"/>
      <point x="50.0" y="845.4081632653061" type="line"/>
      <point x="50.0" y="25.408163265306122" type="line"/>
    </contour>
    <component base="cap"/>
    <component base="cap" yOffset="820.0"/>
  </outline>
</glyph>
<glyph name="_90" format="2">
  <advance width="50.0"/>
  <unicode hex="015A"/>
  <unicode hex="0039"/>
  <unicode hex="0054"/>
  <outline>
    <contour>
      <point x="0.0" y="25.408163265306122" type="line"/>
      <point x="0.0" y="875.4081632653061" type="line"/>
      <point x="50.0" y="875.4081632653061" type="line"/>
      <point x="50.0" y="25.408163265306122" type="line"/>
    </contour>
    <component base="cap"/>
    <component base="cap" yOffset="850.0"/>
  </outline>
</glyph>
<glyph name="_91" format="2">
  <advance width="50.0"/>
  <unicode hex="015B"/>
  <outline>
    <contour>
      <point x="0.0" y="25.408163265306122" type="line"/>
      <point x="0.0" y="885.4081632653061" type="line"/>
      <point x="50.0" y="885.4081632653061" type="line"/>
      <point x="50.0" y="25.408163265306122" type="line"/>
    </contour>
    <component base="cap"/>
    <component base="cap" yOffset="860.0"/>
  </outline>
</glyph>
<glyph name="_99" format="2">
  <advance width="50.0"/>
  <unicode hex="0163"/>
  <unicode hex="0059"/>
  <outline>
    <contour>
      <point x="0.0" y="25.408163265306122" type="line"/>
      <point x="0.0" y="965.4081632653061" type="line"/>
      <point x="50.0" y="965.4081632653061" type="line"/>
      <point x="50.0" y="25.408163265306122" type="line"/>
    </contour>
    <component base="cap"/>
    <component base="cap" yOffset="940.0"/>
  </outline>
</glyph>
<glyph name="_100" format="2">
  <advance width="50.0"/>
  <unicode hex="0164"/>
  <unicode hex="007C"/>
  <unicode hex="2588"/>
  <unicode hex="005A"/>
  <outline>
    <contour>
      <point x="0.0" y="25.408163265306122" type="line"/>
      <point x="0.0" y="975.4081632653061" type="line"/>
      <point x="50.0" y="975.4081632653061" type="line"/>
      <point x="50.0" y="25.408163265306122" type="line"/>
    </contour>
    <component base="cap"/>
    <component base="cap" yOffset="950.0"/>
  </outline>
</glyph>
<glyph name="_101" format="2">
  <advance width="50.0"/>
  <unicode hex="0165"/>
  <outline>
    <contour>
      <point x="0.0" y="25.408163265306122" type="line"/>
      <point x="0.0" y="985.4081632653061" type="line"/>
      <point x="50.0" y="985.4081632653061" type="line"/>
      <point x="50.0" y="25.408163265306122" type="line"/>
    </contour>
    <component base="cap"/>
    <component base="cap" yOffset="960.0"/>
  </outline>
</glyph>
<glyph name="_102" format="2">
  <advance width="50.0"/>
  <unicode hex="0166"/>
  <outline>
    <contour>
      <point x="0.0" y="25.408163265306122" type="line"/>
      <point x="0.0" y="995.4081632653061" type="line"/>
      <point x="50.0" y="995.4081632653061" type="line"/>
      <point x="50.0" y="25.408163265306122" type="line"/>
    </contour>
    <component base="cap"/>
    <component base="cap" yOffset="970.0"/>
  </outline>
</glyph>
<glyph name="_103" format="2">
  <advance width="50.0"/>
  <unicode hex="0167"/>
  <outline>
    <contour>
      <point x="0.0" y="25.408163265306122" type="line"/>
      <point x="0.0" y="1005.4081632653061" type="line"/>
      <point x="50.0" y="1005.4081632653061" type="line"/>
      <point x="50.0" y="25.408163265306122" type="line"/>
    </contour>
    <component base="cap"/>
    <component base="cap" yOffset="980.0"/>
  </outline>
</glyph>
<glyph name="_105" format="2">
  <advance width="50.0"/>
  <unicode hex="0169"/>
  <outline>
    <contour>
      <point x="0.0" y="25.408163265306122" type="line"/>
      <point x="0.0" y="1025.408163265306" type="line"/>
      <point x="50.0" y="1025.408163265306" type="line"/>
      <point x="50.0" y="25.408163265306122" type="line"/>
    </contour>
    <component base="cap"/>
    <component base="cap" yOffset="1000.0"/>
  </outline>
</glyph>
<glyph name="_106" format="2">
  <advance width="50.0"/>
  <unicode hex="016A"/>
  <outline>
    <contour>
      <point x="0.0" y="25.408163265306122" type="line"/>
      <point x="0.0" y="1035.408163265306" type="line"/>
      <point x="50.0" y="1035.408163265306" type="line"/>
      <point x="50.0" y="25.408163265306122" type="line"/>
    </contour>
    <component base="cap"/>
    <component base="cap" yOffset="1010.0"/>
  </outline>
</glyph>
<glyph name="_107" format="2">
  <advance width="50.0"/>
  <unicode hex="016B"/>
  <outline>
    <contour>
      <point x="0.0" y="25.408163265306122" type="line"/>
      <point x="0.0" y="1045.408163265306" type="line"/>
      <point x="50.0" y="1045.408163265306" type="line"/>
      <point x="50.0" y="25.408163265306122" type="line"/>
    </contour>
    <component base="cap"/>
    <component base="cap" yOffset="1020.0"/>
  </outline>
</glyph>
<glyph name="_113" format="2">
  <advance width="50.0"/>
  <unicode hex="0171"/>
  <outline>
    <contour>
      <point x="0.0" y="25.408163265306122" type="line"/>
      <point x="0.0" y="1105.408163265306" type="line"/>
      <point x="50.0" y="1105.408163265306" type="line"/>
      <point x="50.0" y="25.408163265306122" type="line"/>
    </contour>
    <component base="cap"/>
    <component base="cap" yOffset="1080.0"/>
  </outline>
</glyph>
<glyph name="_118" format="2">
  <advance width="50.0"/>
  <unicode hex="0176"/>
  <outline>
    <contour>
      <point x="0.0" y="25.408163265306122" type="line"/>
      <point x="0.0" y="1155.408163265306" type="line"/>
      <point x="50.0" y="1155.408163265306" type="line"/>
      <point x="50.0" y="25.408163265306122" type="line"/>
    </contour>
    <component base="cap"/>
    <component base="cap" yOffset="1130.0"/>
  </outline>
</glyph>
<glyph name="_119" format="2">
  <advance width="50.0"/>
  <unicode hex="0177"/>
  <outline>
    <contour>
      <point x="0.0" y="25.408163265306122" type="line"/>
      <point x="0.0" y="1165.408163265306" type="line"/>
      <point x="50.0" y="1165.408163265306" type="line"/>
      <point x="50.0" y="25.408163265306122" type="line"/>
    </contour>
    <component base="cap"/>
    <component base="cap" yOffset="1140.0"/>
  </outline>
</glyph>
<glyph name="_122" format="2">
  <advance width="50.0"/>
  <unicode hex="017A"/>
  <outline>
    <contour>
      <point x="0.0" y="25.408163265306122" type="line"/>
      <point x="0.0" y="1195.408163265306" type="line"/>
      <point x="50.0" y="1195.408163265306" type="line"/>
      <point x="50.0" y="25.408163265306122" type="line"/>
    </contour>
    <component base="cap"/>
    <component base="cap" yOffset="1170.0"/>
  </outline>
</glyph>
<glyph name="_123" format="2">
  <advance width="50.0"/>
  <unicode hex="017B"/>
  <outline>
    <contour>
      <point x="0.0" y="25.408163265306122" type="line"/>
      <point x="0.0" y="1205.408163265306" type="line"/>
      <point x="50.0" y="1205.408163265306" type="line"/>
      <point x="50.0" y="25.408163265306122" type="line"/>
    </contour>
    <component base="cap"/>
    <component base="cap" yOffset="1180.0"/>
  </outline>
</glyph>
<glyph name="_125" format="2">
  <advance width="50.0"/>
  <unicode hex="017D"/>
  <outline>
    <contour>
      <point x="0.0" y="25.408163265306122" type="line"/>
      <point x="0.0" y="1225.408163265306" type="line"/>
      <point x="50.0" y="1225.408163265306" type="line"/>
      <point x="50.0" y="25.408163265306122" type="line"/>
    </contour>
    <component base="cap"/>
    <component base="cap" yOffset="1200.0"/>
  </outline>
</glyph>
<glyph name="_11.clip" format="2">
  <advance width="50.0"/>
  <outline>
    <contour>
      <point x="55.0" y="110.0" type="curve" smooth="yes"/>
      <point x="-5.0" y="110.0" type="line"/>
      <point x="25.25" y="110.0"/>
      <point x="50.0" y="85.25"/>
      <point x="50.0" y="55.0" type="curve" smooth="yes"/>
      <point x="50.0" y="55.0" type="line"/>
      <point x="50.0" y="24.75"/>
      <point x="25.25" y="0.0"/>
      <point x="-5.0" y="0.0" type="curve" smooth="yes"/>
      <point x="55.0" y="0.0" type="line"/>
      <point x="24.75" y="0.0"/>
      <point x="0.0" y="24.75"/>
      <point x="0.0" y="55.0" type="curve" smooth="yes"/>
      <point x="0.0" y="55.0" type="line"/>
      <point x="0.0" y="85.25"/>
      <point x="24.75" y="110.0"/>
    </contour>
  </outline>
</glyph>
<glyph name="_12.clip" format="2">
  <advance width="50.0"/>
  <outline>
    <contour>
      <point x="60.0" y="120.0" type="curve" smooth="yes"/>
      <point x="-10.0" y="120.0" type="line"/>
      <point x="23.816326530612244" y="120.0"/>
      <point x="50.0" y="93.0"/>
      <point x="50.0" y="60.0" type="curve" smooth="yes"/>
      <point x="50.0" y="60.0" type="line"/>
      <point x="50.0" y="26.0"/>
      <point x="23.816326530612244" y="0.0"/>
      <point x="-10.0" y="0.0" type="curve" smooth="yes"/>
      <point x="60.0" y="0.0" type="line"/>
      <point x="26.0" y="0.0"/>
      <point x="0.0" y="26.0"/>
      <point x="0.0" y="60.0" type="curve" smooth="yes"/>
      <point x="0.0" y="60.0" type="line"/>
      <point x="0.0" y="93.0"/>
      <point x="26.0" y="120.0"/>
    </contour>
  </outline>
</glyph>
<glyph name="_2.clip" format="2">
  <advance width="50.0"/>
  <outline>
    <contour>
      <point x="0.0" y="25.408163265306122" type="line"/>
      <point x="0.0" y="-4.591836734693878" type="line"/>
      <point x="50.0" y="-4.591836734693878" type="line"/>
      <point x="50.0" y="25.408163265306122" type="line"/>
    </contour>
    <component base="cap"/>
    <component base="cap" yOffset="-30.0"/>
  </outline>
</glyph>
<glyph name="_24.clip" format="2">
  <advance width="50.0"/>
  <outline>
    <contour>
      <point x="120.0" y="240.0" type="curve" smooth="yes"/>
      <point x="-70.0" y="240.0" type="line"/>
      <point x="-3.183673469387756" y="240.0"/>
      <point x="50.0" y="186.0"/>
      <point x="50.0" y="120.0" type="curve" smooth="yes"/>
      <point x="50.0" y="120.0" type="line"/>
      <point x="50.0" y="53.0"/>
      <point x="-3.183673469387756" y="0.0"/>
      <point x="-70.0" y="0.0" type="curve" smooth="yes"/>
      <point x="120.0" y="0.0" type="line"/>
      <point x="53.0" y="0.0"/>
      <point x="0.0" y="53.0"/>
      <point x="0.0" y="120.0" type="curve" smooth="yes"/>
      <point x="0.0" y="120.0" type="line"/>
      <point x="0.0" y="186.0"/>
      <point x="53.0" y="240.0"/>
    </contour>
  </outline>
</glyph>
<glyph name="_5.clip" format="2">
  <advance width="50.0"/>
  <outline>
    <contour>
      <point x="0.0" y="25.408163265306122" type="line"/>
      <point x="0.0" y="25.408163265306122" type="line"/>
      <point x="50.0" y="25.408163265306122" type="line"/>
      <point x="50.0" y="25.408163265306122" type="line"/>
    </contour>
    <component base="cap"/>
    <component base="cap"/>
  </outline>
</glyph>
<glyph name="_6.clip" format="2">
  <advance width="50.0"/>
  <outline>
    <contour>
      <point x="30.0" y="60.0" type="curve" smooth="yes"/>
      <point x="20.0" y="60.0" type="line"/>
      <point x="36.5" y="60.0"/>
      <point x="50.0" y="46.5"/>
      <point x="50.0" y="30.0" type="curve" smooth="yes"/>
      <point x="50.0" y="30.0" type="line"/>
      <point x="50.0" y="13.5"/>
      <point x="36.5" y="0.0"/>
      <point x="20.0" y="0.0" type="curve" smooth="yes"/>
      <point x="30.0" y="0.0" type="line"/>
      <point x="13.5" y="0.0"/>
      <point x="0.0" y="13.5"/>
      <point x="0.0" y="30.0" type="curve" smooth="yes"/>
      <point x="0.0" y="30.0" type="line"/>
      <point x="0.0" y="46.5"/>
      <point x="13.5" y="60.0"/>
    </contour>
  </outline>
</glyph>
<glyph name="_7.clip" format="2">
  <advance width="50.0"/>
  <outline>
    <contour>
      <point x="35.0" y="70.0" type="curve" smooth="yes"/>
      <point x="15.0" y="70.0" type="line"/>
      <point x="34.25" y="70.0"/>
      <point x="50.0" y="54.25"/>
      <point x="50.0" y="35.0" type="curve" smooth="yes"/>
      <point x="50.0" y="35.0" type="line"/>
      <point x="50.0" y="15.75"/>
      <point x="34.25" y="0.0"/>
      <point x="15.0" y="0.0" type="curve" smooth="yes"/>
      <point x="35.0" y="0.0" type="line"/>
      <point x="15.75" y="0.0"/>
      <point x="0.0" y="15.75"/>
      <point x="0.0" y="35.0" type="curve" smooth="yes"/>
      <point x="0.0" y="35.0" type="line"/>
      <point x="0.0" y="54.25"/>
      <point x="15.75" y="70.0"/>
    </contour>
  </outline>
</glyph>
<glyph name="_9.clip" format="2">
  <advance width="50.0"/>
  <outline>
    <contour>
      <point x="45.0" y="90.0" type="curve" smooth="yes"/>
      <point x="5.0" y="90.0" type="line"/>
      <point x="29.75" y="90.0"/>
      <point x="50.0" y="69.75"/>
      <point x="50.0" y="45.0" type="curve" smooth="yes"/>
      <point x="50.0" y="45.0" type="line"/>
      <point x="50.0" y="20.25"/>
      <point x="29.75" y="0.0"/>
      <point x="5.0" y="0.0" type="curve" smooth="yes"/>
      <point x="45.0" y="0.0" type="line"/>
      <point x="20.25" y="0.0"/>
      <point x="0.0" y="20.25"/>
      <point x="0.0" y="45.0" type="curve" smooth="yes"/>
      <point x="0.0" y="45.0" type="line"/>
      <point x="0.0" y="69.75"/>
      <point x="20.25" y="90.0"/>
    </contour>
  </outline>
</glyph>
